# xmcd CD database file
#
# Track frame offsets:
#	150
#	2798
#	17148
#	27319
#	42923
#	55044
#	70509
#	80123
#	94334
#	114118
#	125403
#	142122
#	153825
#
# Disc length: 2221 seconds
#
# Revision: 1
# Processed by: cddbd v1.5.2PL0 Copyright (c) Steve Scherf et al.
# Submitted via: jetAudio 7
#
DISCID=a208ab0d
DTITLE=Nomad - Misty Rain
DYEAR=2003
DGENRE=New Age
TTITLE0=Prologue
TTITLE1=Misty Rain
TTITLE2=Winter Song
TTITLE3=Remember
TTITLE4=Nocturne
TTITLE5=Solitude
TTITLE6=Raindrops
TTITLE7=The letter
TTITLE8=Never Cry
TTITLE9=Griffith
TTITLE10=November
TTITLE11=A Girl with Smile
TTITLE12=In the Silence
EXTD=YEAR: 2003
EXTT0=
EXTT1=
EXTT2=
EXTT3=
EXTT4=
EXTT5=
EXTT6=
EXTT7=
EXTT8=
EXTT9=
EXTT10=
EXTT11=
EXTT12=
PLAYORDER=
